Patient5_TMGait_0pt45_1_left_05_EMG.mot
version=1
nRows=19
nColumns=33
inDegrees=no
endheader
time	1LAddLong	2LGlutMax	3LGlutMed	4LIliopsoas	5LSemiMemb	6LBicFemLong	7LRecFem	8LTensFascLat	9LVastMed	10LVasLat	11LGasMed	12lGasLat	13LTibAnt	14LPeroneusLong	15LSol	16LTibPost	17RAddLong	18RGlutMax	19RGlutMed	20RIliopsoas	21RSemiMemb	22RBicFemLong	23RRecFem	24RTensFascLat	25RVastMed	26RVasLat	27RGasMed	28RGasLat	29RTibAnt	30RPeroneusLong	31RSol	32RTibPost
8.01	0.019531	0.006866	-0.096741	-0.018005	0.001984	0.24002	-0.032196	-0.22293	-0.005035	-0.031281	-0.088654	0.005341	0.005798	0.005798	-0.082092	0.11627	-0.008392	-0.007477	0.019989	-0.033264	0.023193	-0.014343	-0.01236	0.054626	0.007935	-0.005188	-0.000916	0.019073	-0.022125	0.028534	0.001068	-0.003815
8.011	0.021515	0.002136	0.014496	-0.010834	0.003967	0.13229	-0.03479	-0.089874	0.000916	-0.044403	-0.075378	-0.00412	0.016479	0.005188	-0.10788	0.062103	-0.036926	-0.001373	-0.006409	-0.16846	0.025177	-0.006714	-0.019073	0.072784	0.003357	-0.00061	-0.000916	0.014496	-0.026855	0.012665	0.008698	-0.006256
8.012	0.059357	-0.002747	0.03891	-0.016022	0.002289	0.010986	-0.024872	-0.10117	0.014343	-0.050049	0.098572	0.009003	0.001221	0.019073	-0.086975	-0.1947	-0.047607	-0.002899	0.028381	0.045319	0.034332	-0.011597	-0.012207	0.095978	0.002136	0.003204	0.005646	-0.00824	-0.015106	-0.02243	-0.001526	-0.000305
8.013	0.045013	-0.001984	0.028381	0.005798	0.006409	-0.040894	-0.024872	-0.082245	0.018616	-0.050354	0.10742	0.01358	0.005341	0.019073	-0.013123	-0.095825	-0.045471	-0.000153	0.028839	0.030518	0.007324	-0.004883	-0.00885	0.043488	-0.001831	-0.005341	0.003662	-0.024261	-0.009766	-0.042877	-0.002441	-0.00061
8.014	0.039215	-0.011749	0.063019	0.012512	0.014801	-0.11231	-0.013275	-0.096436	0.009308	-0.06546	0.093994	0.019379	-0.005493	0.019989	0.016937	-0.0354	-0.040588	-0.000153	0.06073	-0.007935	0.027161	-0.001068	-0.005188	0.001068	-0.005035	0.005341	0.005188	-0.019379	-0.010223	-0.020447	-0.009766	-0.007172
8.015	0.027008	-0.016327	0.12604	0.00351	0.018768	-0.13443	-0.00351	-0.078888	-0.005798	-0.066071	0.061493	0.010223	-0.004578	0.010529	-0.002594	-0.069427	-0.03952	-0.000916	0.040436	-0.013733	0.02655	-0.003967	-0.00946	-0.027008	-0.006561	0.004883	0.00351	-0.012817	-0.009155	0.001678	-0.01358	-0.005341
8.016	0.024872	-0.011902	0.078735	0.019379	0.013885	-0.20645	0.006561	-0.16373	-0.015564	-0.036774	0.022583	0.00351	-0.011444	-0.005493	-0.001068	-0.089264	-0.042725	-0.004578	0.05188	0.001831	0.017395	-0.004272	-0.010071	-0.080109	-0.002136	0	0.002289	0.005951	0.006256	0.000458	-0.013123	-0.009308
8.017	0.024109	0.003662	0.020599	0.025177	0.013733	-0.16388	-0.00946	-0.17502	-0.032654	-0.015106	0.016022	0.012054	-0.053406	-0.000458	0.037537	-0.062561	-0.045013	-0.00824	0.052948	-0.014648	0.027161	-0.009003	-0.003204	-0.1326	-0.016174	0.005493	0.00351	0.004425	0.007324	-0.010834	-0.006866	-0.009766
8.018	0.013275	0.009613	-0.10178	0.015869	0.013733	0.084229	-0.007172	-0.15137	-0.03006	-0.007324	0.010376	-0.000763	-0.047302	0.003204	0.010986	0.20844	-0.040894	-0.005188	0.10254	0.050659	0.033722	0.001221	-0.00412	-0.17929	-0.012665	0.014496	-0.002899	0.005798	0.007629	-0.030975	-0.00885	-0.00824
8.019	0.030212	-0.006714	-0.065918	0.006866	-0.01236	0.22888	-0.009003	-0.14496	-0.02533	0.006409	0.027161	-0.004272	-0.058899	0.000763	-0.028381	0.072784	-0.040741	-0.002136	0.088654	0.033569	0.023956	-0.001678	-0.003967	-0.20416	-0.001984	0.004883	0.001831	0.009308	0.019073	-0.034637	-0.018768	0.002747
8.02	0.032501	-0.005035	0.006409	0.005646	-0.01358	0.14633	0.005188	-0.11002	-0.023804	0.002289	-0.004425	0.012512	-0.041962	0.019684	-0.024719	-0.008698	-0.039673	0.003815	0.083771	-0.067291	0.030212	-0.000305	-0.000305	-0.21576	-0.004272	0.01236	0.000458	0.018768	0.023193	-0.013885	-0.023041	0.001221
8.021	0.028534	-0.005646	0.029907	-0.002899	0.004578	0.042267	-0.000153	-0.012665	-0.016785	-0.008087	-0.02121	0.002594	-0.027924	0.025635	-0.010376	-0.047913	-0.038757	-0.002289	0.062256	-0.039215	0.017395	0.001373	-0.000153	-0.13809	-0.004883	0.011292	0.000458	0.011292	0.023193	-0.001221	-0.018158	0.000763
8.022	0.012054	-0.011749	0.03418	0.003967	0.019684	0.024719	0.009155	-0.018616	0.009003	-0.011749	-0.007324	0.004883	0.037689	0.033875	-0.034943	-0.15655	-0.037079	-0.002136	0.046539	-0.12985	0.024109	0.000305	-0.00412	-0.032043	-0.005798	0.007477	-0.003357	-0.00061	0.006561	0.010681	-0.0177	-0.014954
8.023	0.009003	-0.005188	0.019684	0.037079	0.005646	0.020905	0.009766	-0.051422	0.02182	-0.005341	0.057983	0.007019	0.12894	0.027008	-0.041199	0.012054	-0.034332	-0.002747	0.039368	0.016174	0.032196	-0.006256	-0.001831	0.1442	-0.007172	0.014954	-0.007477	-0.000458	0.000763	0.002747	-0.010376	-0.013885
8.024	0.013123	-0.000305	0.0177	0.03067	-0.001526	0.035095	0.005341	-0.031586	0.026245	-0.028229	0.031433	0.014191	0.077057	0.001526	0.010986	-0.054626	-0.029602	-0.003357	0.002747	0.061798	0.019379	-0.001831	-0.001678	0.21149	-0.009613	0.017853	-0.008087	0.011139	-0.002289	0.012207	-0.003204	-0.004883
8.025	0.013123	0	-0.026093	0.008698	0.002899	0.013885	0.000458	-0.085754	0.029297	-0.029907	0.014648	0.019531	0.061951	-0.006409	0.061493	-0.069733	-0.028076	-0.003967	-0.000153	0.01358	0.038605	0.00061	-0.012207	0.21698	-0.003967	0.010681	-0.003815	0.013275	-0.004425	0.007629	0.004578	-0.011292
8.026	0.012665	0.000153	-0.065155	0.000458	0.038757	0.097351	-0.001068	-0.1799	0.04715	-0.005188	0.000153	0.010071	0.0354	-0.014496	0.11185	-0.024109	-0.028534	-0.001221	0.038147	0.24841	0.037842	-0.001831	-0.014801	0.17105	0.001373	0.001831	0.002289	0.003052	-0.018768	0.013733	0.00824	-0.012207
8.027	-0.000305	0.004883	-0.052795	-0.027924	0.078583	0.09964	0.001831	-0.1506	0.048218	0.006714	-0.076599	-0.005188	0.023651	-0.041504	0.064697	-0.071106	-0.020752	-0.002899	0.047302	0.18662	0.0383	0.006561	-0.011444	0.12894	-0.000916	0.014954	0.000916	0.000458	-0.030365	0.015717	0.029449	-0.011139
8.028	0.000916	0.003967	0.008087	-0.042267	0.084991	0.054932	-0.000305	-0.044403	0.039825	0.011292	-0.070496	-0.018768	0.018158	-0.027161	0.049133	-0.077515	-0.029755	-0.001373	0.044556	-0.077209	0.035553	0.000763	-0.01236	0.13794	-0.005493	0.007019	0.001984	0.001068	-0.044708	0.028381	0.043182	-0.009613
